<svg xmlns="http://www.w3.org/2000/svg" xmlns:xlink="http://www.w3.org/1999/xlink" width="186" zoomAndPan="magnify" viewBox="0 0 139.5 168.75" height="225" preserveAspectRatio="xMidYMid meet" version="1.0"><defs><g/><clipPath id="bd398ee21d"><path d="M 93.816406 94.890625 L 105.773438 94.890625 L 105.773438 103.113281 L 93.816406 103.113281 Z M 93.816406 94.890625 " clip-rule="nonzero"/></clipPath></defs><g fill="#ffffff" fill-opacity="1"><g transform="translate(36.011659, 95.23746)"><g><path d="M 55.890625 -26.328125 C 55.890625 -20.921875 54.769531 -16.175781 52.53125 -12.09375 C 50.300781 -8.007812 47.171875 -4.832031 43.140625 -2.5625 C 39.109375 -0.300781 34.390625 0.828125 28.984375 0.828125 C 23.566406 0.828125 18.816406 -0.300781 14.734375 -2.5625 C 10.648438 -4.832031 7.476562 -8.007812 5.21875 -12.09375 C 2.957031 -16.175781 1.828125 -20.921875 1.828125 -26.328125 C 1.828125 -31.796875 2.957031 -36.570312 5.21875 -40.65625 C 7.476562 -44.738281 10.648438 -47.910156 14.734375 -50.171875 C 18.816406 -52.429688 23.566406 -53.5625 28.984375 -53.5625 C 34.390625 -53.5625 39.109375 -52.429688 43.140625 -50.171875 C 47.171875 -47.910156 50.300781 -44.738281 52.53125 -40.65625 C 54.769531 -36.570312 55.890625 -31.796875 55.890625 -26.328125 Z M 28.984375 -7.625 C 32.453125 -7.625 35.46875 -8.410156 38.03125 -9.984375 C 40.601562 -11.554688 42.609375 -13.75 44.046875 -16.5625 C 45.484375 -19.375 46.203125 -22.628906 46.203125 -26.328125 C 46.203125 -30.078125 45.484375 -33.359375 44.046875 -36.171875 C 42.609375 -38.992188 40.601562 -41.191406 38.03125 -42.765625 C 35.46875 -44.335938 32.453125 -45.125 28.984375 -45.125 C 25.503906 -45.125 22.453125 -44.335938 19.828125 -42.765625 C 17.203125 -41.191406 15.171875 -38.992188 13.734375 -36.171875 C 12.304688 -33.359375 11.59375 -30.078125 11.59375 -26.328125 C 11.59375 -22.628906 12.304688 -19.375 13.734375 -16.5625 C 15.171875 -13.75 17.203125 -11.554688 19.828125 -9.984375 C 22.453125 -8.410156 25.503906 -7.625 28.984375 -7.625 Z M 28.984375 -7.625 "/></g></g></g><g fill="#ffffff" fill-opacity="1"><g transform="translate(33.774413, 127.051235)"><g><path d="M 4.03125 -52.21875 C 4.03125 -53.882812 4.566406 -55.101562 5.640625 -55.875 C 6.710938 -56.65625 7.90625 -57.046875 9.21875 -57.046875 C 10.53125 -57.046875 11.738281 -56.65625 12.84375 -55.875 C 13.957031 -55.101562 14.515625 -53.882812 14.515625 -52.21875 L 14.515625 -4.5625 C 14.515625 -3.070312 13.957031 -1.9375 12.84375 -1.15625 C 11.738281 -0.382812 10.53125 0 9.21875 0 C 7.90625 0 6.710938 -0.367188 5.640625 -1.109375 C 4.566406 -1.859375 4.03125 -3.007812 4.03125 -4.5625 Z M 4.03125 -52.21875 "/></g></g></g><g fill="#ffffff" fill-opacity="1"><g transform="translate(54.465427, 122.95254)"><g><path d="M 10.328125 -3.21875 C 11.023438 -3.21875 11.707031 -3.3125 12.375 -3.5 C 13.050781 -3.695312 13.675781 -4.019531 14.25 -4.46875 C 14.8125 -4.976562 15.351562 -5.210938 15.875 -5.171875 C 16.40625 -5.140625 16.84375 -4.945312 17.1875 -4.59375 C 17.539062 -4.25 17.71875 -3.816406 17.71875 -3.296875 C 17.71875 -2.785156 17.46875 -2.285156 16.96875 -1.796875 C 16.125 -0.984375 15.125 -0.414062 13.96875 -0.09375 C 12.8125 0.226562 11.632812 0.378906 10.4375 0.359375 C 8.550781 0.359375 6.894531 -0.0234375 5.46875 -0.796875 C 4.039062 -1.566406 2.921875 -2.632812 2.109375 -4 C 1.304688 -5.375 0.90625 -6.960938 0.90625 -8.765625 C 0.90625 -10.742188 1.289062 -12.476562 2.0625 -13.96875 C 2.832031 -15.457031 3.921875 -16.625 5.328125 -17.46875 C 6.734375 -18.3125 8.398438 -18.734375 10.328125 -18.734375 C 12.242188 -18.734375 13.875 -18.34375 15.21875 -17.5625 C 16.570312 -16.78125 17.601562 -15.679688 18.3125 -14.265625 C 19.019531 -12.859375 19.375 -11.21875 19.375 -9.34375 C 19.375 -8.75 19.253906 -8.238281 19.015625 -7.8125 C 18.773438 -7.394531 18.140625 -7.1875 17.109375 -7.1875 L 5.09375 -7.1875 C 5.425781 -6 6.0625 -5.039062 7 -4.3125 C 7.9375 -3.582031 9.046875 -3.21875 10.328125 -3.21875 Z M 10.359375 -15.15625 C 8.960938 -15.15625 7.796875 -14.71875 6.859375 -13.84375 C 5.921875 -12.96875 5.316406 -11.816406 5.046875 -10.390625 L 15.5625 -10.390625 C 15.4375 -11.816406 14.960938 -12.96875 14.140625 -13.84375 C 13.328125 -14.71875 12.066406 -15.15625 10.359375 -15.15625 Z M 10.359375 -15.15625 "/></g></g></g><g fill="#ffffff" fill-opacity="1"><g transform="translate(75.433461, 122.95254)"><g><path d="M 16.78125 -18.375 C 17.40625 -18.375 17.90625 -18.195312 18.28125 -17.84375 C 18.65625 -17.5 18.84375 -17.050781 18.84375 -16.5 L 18.84375 -1.875 C 18.84375 -1.320312 18.65625 -0.867188 18.28125 -0.515625 C 17.90625 -0.171875 17.40625 0 16.78125 0 C 16.175781 0 15.707031 -0.132812 15.375 -0.40625 C 15.039062 -0.6875 14.835938 -1.054688 14.765625 -1.515625 C 13.941406 -0.867188 13.023438 -0.394531 12.015625 -0.09375 C 11.003906 0.207031 10.039062 0.359375 9.125 0.359375 C 7.394531 0.359375 5.898438 -0.0351562 4.640625 -0.828125 C 3.378906 -1.617188 2.410156 -2.738281 1.734375 -4.1875 C 1.054688 -5.632812 0.71875 -7.316406 0.71875 -9.234375 C 0.71875 -11.117188 1.085938 -12.769531 1.828125 -14.1875 C 2.578125 -15.601562 3.617188 -16.710938 4.953125 -17.515625 C 6.296875 -18.328125 7.84375 -18.734375 9.59375 -18.734375 C 10.363281 -18.734375 11.21875 -18.585938 12.15625 -18.296875 C 13.101562 -18.003906 13.972656 -17.546875 14.765625 -16.921875 C 14.859375 -17.359375 15.070312 -17.707031 15.40625 -17.96875 C 15.75 -18.238281 16.207031 -18.375 16.78125 -18.375 Z M 9.5625 -3.28125 C 10.625 -3.28125 11.644531 -3.515625 12.625 -3.984375 C 13.613281 -4.453125 14.3125 -5.144531 14.71875 -6.0625 L 14.71875 -12.3125 C 14.269531 -13.195312 13.585938 -13.878906 12.671875 -14.359375 C 11.753906 -14.847656 10.828125 -15.09375 9.890625 -15.09375 C 8.367188 -15.09375 7.144531 -14.535156 6.21875 -13.421875 C 5.300781 -12.316406 4.84375 -10.910156 4.84375 -9.203125 C 4.84375 -7.421875 5.273438 -5.988281 6.140625 -4.90625 C 7.003906 -3.820312 8.144531 -3.28125 9.5625 -3.28125 Z M 9.5625 -3.28125 "/></g></g></g><g fill="#ffffff" fill-opacity="1"><g transform="translate(96.293231, 122.95254)"><g><path d="M 16.171875 -3.109375 C 16.578125 -2.597656 16.738281 -2.109375 16.65625 -1.640625 C 16.570312 -1.171875 16.34375 -0.78125 15.96875 -0.46875 C 15.59375 -0.15625 15.164062 0 14.6875 0 C 14.039062 0 13.488281 -0.265625 13.03125 -0.796875 L 6.9375 -7.578125 L 5.890625 -6.640625 L 5.890625 -1.84375 C 5.890625 -1.238281 5.664062 -0.78125 5.21875 -0.46875 C 4.769531 -0.15625 4.296875 0 3.796875 0 C 3.265625 0 2.789062 -0.15625 2.375 -0.46875 C 1.96875 -0.78125 1.765625 -1.238281 1.765625 -1.84375 L 1.765625 -21.515625 C 1.765625 -22.140625 1.96875 -22.601562 2.375 -22.90625 C 2.789062 -23.207031 3.273438 -23.359375 3.828125 -23.359375 C 4.378906 -23.359375 4.859375 -23.207031 5.265625 -22.90625 C 5.679688 -22.601562 5.890625 -22.140625 5.890625 -21.515625 L 5.890625 -11.546875 L 12.5625 -17.796875 C 13.019531 -18.179688 13.523438 -18.375 14.078125 -18.375 C 14.648438 -18.375 15.140625 -18.1875 15.546875 -17.8125 C 15.960938 -17.4375 16.171875 -17.007812 16.171875 -16.53125 C 16.171875 -16.070312 15.914062 -15.601562 15.40625 -15.125 L 9.75 -10.109375 Z M 16.171875 -3.109375 "/></g></g></g><g clip-path="url(#bd398ee21d)"><path fill="#189ba8" d="M 99.824219 94.917969 C 99.921875 94.902344 100.015625 94.957031 100.082031 95.03125 L 105.890625 102.765625 C 105.992188 102.949219 105.910156 102.996094 105.777344 103.125 L 93.9375 103.125 C 93.816406 103.027344 93.820312 102.941406 93.824219 102.789062 C 95.761719 100.226562 97.695312 97.660156 99.613281 95.082031 C 99.667969 95.027344 99.746094 94.929688 99.824219 94.917969 Z M 99.824219 94.917969 " fill-opacity="1" fill-rule="nonzero"/></g><path fill="#fefefe" d="M 99.847656 95.488281 L 99.917969 95.503906 L 102.527344 98.996094 C 102.589844 99.046875 102.339844 99.335938 102.320312 99.335938 C 102.246094 99.335938 101.707031 98.464844 101.578125 98.429688 C 101.234375 98.34375 100.996094 99.019531 100.753906 99.199219 C 99.730469 97.914062 100.019531 97.863281 98.996094 99.199219 C 98.699219 99.042969 98.515625 98.277344 98.117188 98.460938 C 98.019531 98.503906 97.460938 99.335938 97.402344 99.335938 C 97.375 99.335938 97.148438 99.148438 97.25 98.941406 C 97.339844 98.746094 99.519531 96.015625 99.847656 95.492188 Z M 99.847656 95.488281 " fill-opacity="1" fill-rule="nonzero"/><g fill="#189ba8" fill-opacity="1"><g transform="translate(94.12969, 78.267412)"><g><path d="M 10.5625 -17.921875 C 12.269531 -17.921875 13.757812 -17.546875 15.03125 -16.796875 C 16.3125 -16.046875 17.300781 -15 18 -13.65625 C 18.707031 -12.3125 19.0625 -10.753906 19.0625 -8.984375 C 19.0625 -7.140625 18.707031 -5.515625 18 -4.109375 C 17.300781 -2.703125 16.328125 -1.609375 15.078125 -0.828125 C 13.835938 -0.046875 12.378906 0.34375 10.703125 0.34375 C 9.921875 0.34375 9.066406 0.207031 8.140625 -0.0625 C 7.222656 -0.34375 6.382812 -0.738281 5.625 -1.25 L 5.625 4.046875 C 5.625 4.617188 5.421875 5.050781 5.015625 5.34375 C 4.617188 5.644531 4.175781 5.796875 3.6875 5.796875 C 3.1875 5.796875 2.734375 5.644531 2.328125 5.34375 C 1.929688 5.050781 1.734375 4.617188 1.734375 4.046875 L 1.734375 -15.8125 C 1.734375 -16.363281 1.910156 -16.796875 2.265625 -17.109375 C 2.617188 -17.421875 3.109375 -17.578125 3.734375 -17.578125 C 4.765625 -17.578125 5.375 -17.175781 5.5625 -16.375 C 6.363281 -16.945312 7.203125 -17.347656 8.078125 -17.578125 C 8.953125 -17.804688 9.78125 -17.921875 10.5625 -17.921875 Z M 10.59375 -3.140625 C 11.957031 -3.140625 13.050781 -3.675781 13.875 -4.75 C 14.707031 -5.820312 15.125 -7.21875 15.125 -8.9375 C 15.125 -10.570312 14.679688 -11.894531 13.796875 -12.90625 C 12.910156 -13.925781 11.742188 -14.4375 10.296875 -14.4375 C 9.367188 -14.4375 8.46875 -14.195312 7.59375 -13.71875 C 6.71875 -13.25 6.0625 -12.578125 5.625 -11.703125 L 5.625 -5.96875 C 6 -5.070312 6.65625 -4.375 7.59375 -3.875 C 8.539062 -3.382812 9.539062 -3.140625 10.59375 -3.140625 Z M 10.59375 -3.140625 "/></g></g></g><g fill="#189ba8" fill-opacity="1"><g transform="translate(114.224987, 78.267412)"><g><path d="M 0.453125 -4.109375 C 0.285156 -4.753906 0.429688 -5.269531 0.890625 -5.65625 C 1.359375 -6.050781 1.867188 -6.25 2.421875 -6.25 C 2.828125 -6.25 3.191406 -6.128906 3.515625 -5.890625 C 3.835938 -5.648438 4.082031 -5.285156 4.25 -4.796875 C 4.382812 -4.378906 4.679688 -4.039062 5.140625 -3.78125 C 5.597656 -3.519531 6.132812 -3.328125 6.75 -3.203125 C 7.363281 -3.085938 7.976562 -3.03125 8.59375 -3.03125 C 9.84375 -3.03125 10.84375 -3.253906 11.59375 -3.703125 C 12.351562 -4.160156 12.734375 -4.734375 12.734375 -5.421875 C 12.734375 -5.898438 12.53125 -6.253906 12.125 -6.484375 C 11.726562 -6.722656 11.203125 -6.882812 10.546875 -6.96875 C 9.890625 -7.0625 9.191406 -7.132812 8.453125 -7.1875 C 7.492188 -7.28125 6.546875 -7.394531 5.609375 -7.53125 C 4.679688 -7.664062 3.835938 -7.898438 3.078125 -8.234375 C 2.316406 -8.566406 1.703125 -9.0625 1.234375 -9.71875 C 0.773438 -10.375 0.546875 -11.265625 0.546875 -12.390625 C 0.546875 -13.492188 0.867188 -14.460938 1.515625 -15.296875 C 2.160156 -16.128906 3.070312 -16.773438 4.25 -17.234375 C 5.425781 -17.691406 6.785156 -17.921875 8.328125 -17.921875 C 9.222656 -17.921875 10.1875 -17.832031 11.21875 -17.65625 C 12.257812 -17.488281 13.222656 -17.140625 14.109375 -16.609375 C 14.992188 -16.078125 15.644531 -15.257812 16.0625 -14.15625 C 16.21875 -13.695312 16.203125 -13.285156 16.015625 -12.921875 C 15.835938 -12.566406 15.566406 -12.296875 15.203125 -12.109375 C 14.847656 -11.929688 14.488281 -11.84375 14.125 -11.84375 C 13.707031 -11.84375 13.363281 -11.921875 13.09375 -12.078125 C 12.832031 -12.242188 12.613281 -12.523438 12.4375 -12.921875 C 12.226562 -13.398438 11.875 -13.753906 11.375 -13.984375 C 10.882812 -14.210938 10.351562 -14.351562 9.78125 -14.40625 C 9.21875 -14.46875 8.734375 -14.5 8.328125 -14.5 C 7.171875 -14.5 6.238281 -14.300781 5.53125 -13.90625 C 4.832031 -13.519531 4.484375 -13.003906 4.484375 -12.359375 C 4.484375 -11.804688 4.664062 -11.429688 5.03125 -11.234375 C 5.40625 -11.046875 5.910156 -10.929688 6.546875 -10.890625 C 7.179688 -10.859375 7.890625 -10.796875 8.671875 -10.703125 C 9.640625 -10.585938 10.59375 -10.460938 11.53125 -10.328125 C 12.476562 -10.191406 13.34375 -9.953125 14.125 -9.609375 C 14.90625 -9.273438 15.523438 -8.78125 15.984375 -8.125 C 16.441406 -7.46875 16.671875 -6.566406 16.671875 -5.421875 C 16.671875 -4.296875 16.332031 -3.296875 15.65625 -2.421875 C 14.976562 -1.546875 14.035156 -0.863281 12.828125 -0.375 C 11.617188 0.101562 10.207031 0.34375 8.59375 0.34375 C 7.882812 0.34375 7.109375 0.289062 6.265625 0.1875 C 5.421875 0.0820312 4.601562 -0.117188 3.8125 -0.421875 C 3.019531 -0.734375 2.320312 -1.179688 1.71875 -1.765625 C 1.125 -2.359375 0.703125 -3.140625 0.453125 -4.109375 Z M 0.453125 -4.109375 "/></g></g></g></svg>